<mxfile host="app.diagrams.net" agent="Mozilla/5.0 (Windows NT 10.0; Win64; x64) AppleWebKit/537.36 (KHTML, like Gecko) Chrome/135.0.0.0 Safari/537.36 Edg/135.0.0.0" version="26.2.13">
  <diagram name="个性化检索系统总体架构" id="p6F2pSkXYbEMtpnHxuAE">
    <mxGraphModel dx="1115" dy="878" grid="1" gridSize="10" guides="1" tooltips="1" connect="1" arrows="1" fold="1" page="1" pageScale="1" pageWidth="827" pageHeight="1169" math="0" shadow="0">
      <root>
        <mxCell id="0" />
        <mxCell id="1" parent="0" />
        <mxCell id="YSYMRMp2fZhCrhhA15pX-54" value="" style="rounded=1;whiteSpace=wrap;html=1;strokeColor=#B85450;fillColor=#F8CECC;" vertex="1" parent="1">
          <mxGeometry x="120" y="70" width="520" height="80" as="geometry" />
        </mxCell>
        <mxCell id="YSYMRMp2fZhCrhhA15pX-55" value="表现层" style="text;html=1;fontSize=16;fontStyle=1;align=center;verticalAlign=top;" vertex="1" parent="YSYMRMp2fZhCrhhA15pX-54">
          <mxGeometry width="520" height="30" as="geometry" />
        </mxCell>
        <mxCell id="YSYMRMp2fZhCrhhA15pX-56" value="用户界面" style="rounded=0;whiteSpace=wrap;html=1;strokeColor=#B85450;fillColor=#FFFFFF;" vertex="1" parent="YSYMRMp2fZhCrhhA15pX-54">
          <mxGeometry x="30.002727272727274" y="40" width="130" height="30" as="geometry" />
        </mxCell>
        <mxCell id="YSYMRMp2fZhCrhhA15pX-57" value="结果展示" style="rounded=0;whiteSpace=wrap;html=1;strokeColor=#B85450;fillColor=#FFFFFF;" vertex="1" parent="YSYMRMp2fZhCrhhA15pX-54">
          <mxGeometry x="194.99727272727276" y="40" width="130" height="30" as="geometry" />
        </mxCell>
        <mxCell id="YSYMRMp2fZhCrhhA15pX-58" value="反馈收集" style="rounded=0;whiteSpace=wrap;html=1;strokeColor=#B85450;fillColor=#FFFFFF;" vertex="1" parent="YSYMRMp2fZhCrhhA15pX-54">
          <mxGeometry x="360.0018181818182" y="40" width="130" height="30" as="geometry" />
        </mxCell>
        <mxCell id="YSYMRMp2fZhCrhhA15pX-59" value="" style="rounded=1;whiteSpace=wrap;html=1;strokeColor=#6C8EBF;fillColor=#DAE8FC;" vertex="1" parent="1">
          <mxGeometry x="120" y="180" width="520" height="120" as="geometry" />
        </mxCell>
        <mxCell id="YSYMRMp2fZhCrhhA15pX-60" value="服务层" style="text;html=1;fontSize=16;fontStyle=1;align=center;verticalAlign=top;" vertex="1" parent="YSYMRMp2fZhCrhhA15pX-59">
          <mxGeometry width="520" height="39.99999999999999" as="geometry" />
        </mxCell>
        <mxCell id="YSYMRMp2fZhCrhhA15pX-61" value="检索引擎模块" style="rounded=0;whiteSpace=wrap;html=1;strokeColor=#6C8EBF;fillColor=#FFFFFF;" vertex="1" parent="YSYMRMp2fZhCrhhA15pX-59">
          <mxGeometry x="90" y="40" width="130" height="26.67" as="geometry" />
        </mxCell>
        <mxCell id="YSYMRMp2fZhCrhhA15pX-62" value="用户画像模块" style="rounded=0;whiteSpace=wrap;html=1;strokeColor=#6C8EBF;fillColor=#FFFFFF;" vertex="1" parent="YSYMRMp2fZhCrhhA15pX-59">
          <mxGeometry x="294" y="40" width="130" height="26.67" as="geometry" />
        </mxCell>
        <mxCell id="YSYMRMp2fZhCrhhA15pX-84" value="功能：查询处理、向量检索、排序、融合" style="rounded=0;whiteSpace=wrap;html=1;strokeColor=#6C8EBF;fillColor=#FFFFFF;" vertex="1" parent="YSYMRMp2fZhCrhhA15pX-59">
          <mxGeometry x="110" y="80" width="290" height="26.67" as="geometry" />
        </mxCell>
        <mxCell id="YSYMRMp2fZhCrhhA15pX-64" value="" style="rounded=1;whiteSpace=wrap;html=1;strokeColor=#82B366;fillColor=#D5E8D4;" vertex="1" parent="1">
          <mxGeometry x="120" y="330" width="520" height="110" as="geometry" />
        </mxCell>
        <mxCell id="YSYMRMp2fZhCrhhA15pX-65" value="模型层" style="text;html=1;fontSize=16;fontStyle=1;align=center;verticalAlign=top;" vertex="1" parent="YSYMRMp2fZhCrhhA15pX-64">
          <mxGeometry width="520" height="30" as="geometry" />
        </mxCell>
        <mxCell id="YSYMRMp2fZhCrhhA15pX-66" value="BERT文本嵌入（bert-base-chinese）" style="rounded=0;whiteSpace=wrap;html=1;strokeColor=#82B366;fillColor=#FFFFFF;" vertex="1" parent="YSYMRMp2fZhCrhhA15pX-64">
          <mxGeometry x="20" y="40" width="120" height="40" as="geometry" />
        </mxCell>
        <mxCell id="YSYMRMp2fZhCrhhA15pX-67" value="用户兴趣建模（SentenceTransformer, CLS池化）" style="rounded=0;whiteSpace=wrap;html=1;strokeColor=#82B366;fillColor=#FFFFFF;" vertex="1" parent="YSYMRMp2fZhCrhhA15pX-64">
          <mxGeometry x="160" y="40" width="200" height="40" as="geometry" />
        </mxCell>
        <mxCell id="YSYMRMp2fZhCrhhA15pX-68" value="Deepseek API（RAG）" style="rounded=0;whiteSpace=wrap;html=1;strokeColor=#82B366;fillColor=#FFFFFF;" vertex="1" parent="YSYMRMp2fZhCrhhA15pX-64">
          <mxGeometry x="379.9990909090909" y="40" width="118.18181818181819" height="40" as="geometry" />
        </mxCell>
        <mxCell id="YSYMRMp2fZhCrhhA15pX-69" value="" style="rounded=1;whiteSpace=wrap;html=1;strokeColor=#D6B656;fillColor=#FFF2CC;" vertex="1" parent="1">
          <mxGeometry x="120" y="470" width="520" height="90" as="geometry" />
        </mxCell>
        <mxCell id="YSYMRMp2fZhCrhhA15pX-70" value="数据层" style="text;html=1;fontSize=16;fontStyle=1;align=center;verticalAlign=top;" vertex="1" parent="YSYMRMp2fZhCrhhA15pX-69">
          <mxGeometry width="520" height="22.5" as="geometry" />
        </mxCell>
        <mxCell id="YSYMRMp2fZhCrhhA15pX-71" value="文档库（中文维基百科）" style="rounded=0;whiteSpace=wrap;html=1;strokeColor=#D6B656;fillColor=#FFFFFF;" vertex="1" parent="YSYMRMp2fZhCrhhA15pX-69">
          <mxGeometry x="20.004545454545454" y="40" width="141.8181818181818" height="30" as="geometry" />
        </mxCell>
        <mxCell id="YSYMRMp2fZhCrhhA15pX-72" value="向量索引（Faiss）" style="rounded=0;whiteSpace=wrap;html=1;strokeColor=#D6B656;fillColor=#FFFFFF;" vertex="1" parent="YSYMRMp2fZhCrhhA15pX-69">
          <mxGeometry x="189.0890909090909" y="40" width="141.8181818181818" height="30" as="geometry" />
        </mxCell>
        <mxCell id="YSYMRMp2fZhCrhhA15pX-73" value="用户数据" style="rounded=0;whiteSpace=wrap;html=1;strokeColor=#D6B656;fillColor=#FFFFFF;" vertex="1" parent="YSYMRMp2fZhCrhhA15pX-69">
          <mxGeometry x="360" y="40" width="130" height="30" as="geometry" />
        </mxCell>
        <mxCell id="YSYMRMp2fZhCrhhA15pX-74" style="endArrow=block;endFill=1;strokeWidth=2;" edge="1" parent="1" source="YSYMRMp2fZhCrhhA15pX-54" target="YSYMRMp2fZhCrhhA15pX-59">
          <mxGeometry relative="1" as="geometry" />
        </mxCell>
        <mxCell id="YSYMRMp2fZhCrhhA15pX-75" style="endArrow=block;endFill=1;strokeWidth=2;" edge="1" parent="1" source="YSYMRMp2fZhCrhhA15pX-59" target="YSYMRMp2fZhCrhhA15pX-64">
          <mxGeometry relative="1" as="geometry" />
        </mxCell>
        <mxCell id="YSYMRMp2fZhCrhhA15pX-76" style="endArrow=block;endFill=1;strokeWidth=2;" edge="1" parent="1" source="YSYMRMp2fZhCrhhA15pX-64" target="YSYMRMp2fZhCrhhA15pX-69">
          <mxGeometry relative="1" as="geometry" />
        </mxCell>
        <mxCell id="YSYMRMp2fZhCrhhA15pX-77" style="endArrow=block;endFill=1;strokeWidth=2;" edge="1" parent="1" source="YSYMRMp2fZhCrhhA15pX-69" target="YSYMRMp2fZhCrhhA15pX-64">
          <mxGeometry relative="1" as="geometry" />
        </mxCell>
        <mxCell id="YSYMRMp2fZhCrhhA15pX-78" style="endArrow=block;endFill=1;strokeWidth=2;" edge="1" parent="1" source="YSYMRMp2fZhCrhhA15pX-64" target="YSYMRMp2fZhCrhhA15pX-59">
          <mxGeometry relative="1" as="geometry" />
        </mxCell>
        <mxCell id="YSYMRMp2fZhCrhhA15pX-79" style="endArrow=block;endFill=1;strokeWidth=2;" edge="1" parent="1" source="YSYMRMp2fZhCrhhA15pX-59" target="YSYMRMp2fZhCrhhA15pX-54">
          <mxGeometry relative="1" as="geometry" />
        </mxCell>
      </root>
    </mxGraphModel>
  </diagram>
</mxfile>
